<mxfile host="app.diagrams.net" modified="2021-03-26T09:16:40.480Z" agent="5.0 (Macintosh; Intel Mac OS X 10_15_6) AppleWebKit/605.1.15 (KHTML, like Gecko) Version/14.0.3 Safari/605.1.15" etag="lLb1QsW3wWrWJwp79yge" version="14.5.1" type="github">
  <diagram id="-nkPL3prVzz8ZeXdR15z" name="Page-1">
    <mxGraphModel dx="1181" dy="677" grid="1" gridSize="10" guides="1" tooltips="1" connect="1" arrows="1" fold="1" page="1" pageScale="1" pageWidth="1169" pageHeight="1654" math="0" shadow="0">
      <root>
        <mxCell id="0" />
        <mxCell id="1" parent="0" />
        <mxCell id="L3CKvI0NyoEhmHQc9bBx-1" value="" style="ellipse;whiteSpace=wrap;html=1;aspect=fixed;fontSize=14;fillColor=#000000;strokeWidth=5;" vertex="1" parent="1">
          <mxGeometry x="120" y="250" width="10" height="10" as="geometry" />
        </mxCell>
        <mxCell id="L3CKvI0NyoEhmHQc9bBx-2" value="" style="endArrow=none;html=1;fontSize=14;" edge="1" parent="1" target="L3CKvI0NyoEhmHQc9bBx-1">
          <mxGeometry width="50" height="50" relative="1" as="geometry">
            <mxPoint x="130" y="250" as="sourcePoint" />
            <mxPoint x="970" y="250" as="targetPoint" />
            <Array as="points" />
          </mxGeometry>
        </mxCell>
        <mxCell id="L3CKvI0NyoEhmHQc9bBx-3" value="" style="ellipse;whiteSpace=wrap;html=1;aspect=fixed;fontSize=14;fillColor=#000000;strokeWidth=5;" vertex="1" parent="1">
          <mxGeometry x="250" y="170" width="10" height="10" as="geometry" />
        </mxCell>
        <mxCell id="L3CKvI0NyoEhmHQc9bBx-4" value="" style="endArrow=none;html=1;fontSize=14;strokeWidth=2;dashed=1;" edge="1" parent="1" source="L3CKvI0NyoEhmHQc9bBx-1" target="L3CKvI0NyoEhmHQc9bBx-3">
          <mxGeometry width="50" height="50" relative="1" as="geometry">
            <mxPoint x="129.13463251034773" y="252.18844989296326" as="sourcePoint" />
            <mxPoint x="970" y="250" as="targetPoint" />
            <Array as="points" />
          </mxGeometry>
        </mxCell>
        <mxCell id="L3CKvI0NyoEhmHQc9bBx-5" value="" style="ellipse;whiteSpace=wrap;html=1;aspect=fixed;fontSize=14;fillColor=#000000;strokeWidth=5;" vertex="1" parent="1">
          <mxGeometry x="360" y="170" width="10" height="10" as="geometry" />
        </mxCell>
        <mxCell id="L3CKvI0NyoEhmHQc9bBx-6" value="" style="endArrow=none;html=1;fontSize=14;strokeWidth=2;dashed=1;" edge="1" parent="1" source="L3CKvI0NyoEhmHQc9bBx-3" target="L3CKvI0NyoEhmHQc9bBx-5">
          <mxGeometry width="50" height="50" relative="1" as="geometry">
            <mxPoint x="259.9952807918344" y="174.78281387861603" as="sourcePoint" />
            <mxPoint x="970" y="250" as="targetPoint" />
            <Array as="points" />
          </mxGeometry>
        </mxCell>
        <mxCell id="L3CKvI0NyoEhmHQc9bBx-7" value="" style="ellipse;whiteSpace=wrap;html=1;aspect=fixed;fontSize=14;fillColor=#000000;strokeWidth=5;" vertex="1" parent="1">
          <mxGeometry x="480" y="240" width="10" height="10" as="geometry" />
        </mxCell>
        <mxCell id="L3CKvI0NyoEhmHQc9bBx-8" value="" style="endArrow=none;html=1;fontSize=14;strokeWidth=2;dashed=1;" edge="1" parent="1" source="L3CKvI0NyoEhmHQc9bBx-5" target="L3CKvI0NyoEhmHQc9bBx-7">
          <mxGeometry width="50" height="50" relative="1" as="geometry">
            <mxPoint x="368.5355339059329" y="171.46446609406712" as="sourcePoint" />
            <mxPoint x="970" y="250" as="targetPoint" />
            <Array as="points" />
          </mxGeometry>
        </mxCell>
        <mxCell id="L3CKvI0NyoEhmHQc9bBx-9" value="" style="ellipse;whiteSpace=wrap;html=1;aspect=fixed;fontSize=14;fillColor=#000000;strokeWidth=5;" vertex="1" parent="1">
          <mxGeometry x="595" y="170" width="10" height="10" as="geometry" />
        </mxCell>
        <mxCell id="L3CKvI0NyoEhmHQc9bBx-10" value="" style="endArrow=none;html=1;fontSize=14;strokeWidth=2;dashed=1;" edge="1" parent="1" source="L3CKvI0NyoEhmHQc9bBx-7" target="L3CKvI0NyoEhmHQc9bBx-9">
          <mxGeometry width="50" height="50" relative="1" as="geometry">
            <mxPoint x="480.8119470157003" y="242.26866109719595" as="sourcePoint" />
            <mxPoint x="970" y="250" as="targetPoint" />
            <Array as="points" />
          </mxGeometry>
        </mxCell>
        <mxCell id="L3CKvI0NyoEhmHQc9bBx-11" value="" style="ellipse;whiteSpace=wrap;html=1;aspect=fixed;fontSize=14;fillColor=#000000;strokeWidth=5;" vertex="1" parent="1">
          <mxGeometry x="720" y="240" width="10" height="10" as="geometry" />
        </mxCell>
        <mxCell id="L3CKvI0NyoEhmHQc9bBx-12" value="" style="endArrow=none;html=1;fontSize=14;strokeWidth=2;dashed=1;" edge="1" parent="1" source="L3CKvI0NyoEhmHQc9bBx-9" target="L3CKvI0NyoEhmHQc9bBx-11">
          <mxGeometry width="50" height="50" relative="1" as="geometry">
            <mxPoint x="595.001181055904" y="174.89133002295443" as="sourcePoint" />
            <mxPoint x="970" y="250" as="targetPoint" />
            <Array as="points" />
          </mxGeometry>
        </mxCell>
        <mxCell id="L3CKvI0NyoEhmHQc9bBx-13" value="" style="ellipse;whiteSpace=wrap;html=1;aspect=fixed;fontSize=14;fillColor=#000000;strokeWidth=5;" vertex="1" parent="1">
          <mxGeometry x="840" y="210" width="10" height="10" as="geometry" />
        </mxCell>
        <mxCell id="L3CKvI0NyoEhmHQc9bBx-14" value="" style="endArrow=none;html=1;fontSize=14;strokeWidth=2;dashed=1;" edge="1" parent="1" source="L3CKvI0NyoEhmHQc9bBx-11" target="L3CKvI0NyoEhmHQc9bBx-13">
          <mxGeometry width="50" height="50" relative="1" as="geometry">
            <mxPoint x="720.1079833591639" y="243.96647535756983" as="sourcePoint" />
            <mxPoint x="970" y="250" as="targetPoint" />
            <Array as="points" />
          </mxGeometry>
        </mxCell>
        <mxCell id="L3CKvI0NyoEhmHQc9bBx-15" value="" style="ellipse;whiteSpace=wrap;html=1;aspect=fixed;fontSize=10;fillColor=#000000;strokeWidth=1;" vertex="1" parent="1">
          <mxGeometry x="130" y="260" width="10" height="10" as="geometry" />
        </mxCell>
        <mxCell id="L3CKvI0NyoEhmHQc9bBx-16" value="" style="endArrow=none;html=1;fontSize=14;" edge="1" parent="1" target="L3CKvI0NyoEhmHQc9bBx-15">
          <mxGeometry width="50" height="50" relative="1" as="geometry">
            <mxPoint x="140" y="260" as="sourcePoint" />
            <mxPoint x="980" y="260" as="targetPoint" />
            <Array as="points" />
          </mxGeometry>
        </mxCell>
        <mxCell id="L3CKvI0NyoEhmHQc9bBx-17" value="" style="ellipse;whiteSpace=wrap;html=1;aspect=fixed;fontSize=14;fillColor=#000000;" vertex="1" parent="1">
          <mxGeometry x="250" y="150" width="10" height="10" as="geometry" />
        </mxCell>
        <mxCell id="L3CKvI0NyoEhmHQc9bBx-18" value="" style="endArrow=none;html=1;fontSize=14;strokeWidth=2;" edge="1" parent="1" source="L3CKvI0NyoEhmHQc9bBx-15" target="L3CKvI0NyoEhmHQc9bBx-17">
          <mxGeometry width="50" height="50" relative="1" as="geometry">
            <mxPoint x="139.13463251034773" y="262.18844989296326" as="sourcePoint" />
            <mxPoint x="980" y="260" as="targetPoint" />
            <Array as="points" />
          </mxGeometry>
        </mxCell>
        <mxCell id="L3CKvI0NyoEhmHQc9bBx-19" value="" style="ellipse;whiteSpace=wrap;html=1;aspect=fixed;fontSize=14;fillColor=#000000;" vertex="1" parent="1">
          <mxGeometry x="370" y="190" width="10" height="10" as="geometry" />
        </mxCell>
        <mxCell id="L3CKvI0NyoEhmHQc9bBx-20" value="" style="endArrow=none;html=1;fontSize=14;strokeWidth=2;" edge="1" parent="1" source="L3CKvI0NyoEhmHQc9bBx-17" target="L3CKvI0NyoEhmHQc9bBx-19">
          <mxGeometry width="50" height="50" relative="1" as="geometry">
            <mxPoint x="269.9952807918344" y="184.78281387861603" as="sourcePoint" />
            <mxPoint x="980" y="260" as="targetPoint" />
            <Array as="points" />
          </mxGeometry>
        </mxCell>
        <mxCell id="L3CKvI0NyoEhmHQc9bBx-21" value="" style="ellipse;whiteSpace=wrap;html=1;aspect=fixed;fontSize=14;fillColor=#000000;" vertex="1" parent="1">
          <mxGeometry x="480" y="220" width="10" height="10" as="geometry" />
        </mxCell>
        <mxCell id="L3CKvI0NyoEhmHQc9bBx-22" value="" style="endArrow=none;html=1;fontSize=14;strokeWidth=2;" edge="1" parent="1" source="L3CKvI0NyoEhmHQc9bBx-19" target="L3CKvI0NyoEhmHQc9bBx-21">
          <mxGeometry width="50" height="50" relative="1" as="geometry">
            <mxPoint x="378.5355339059329" y="181.46446609406712" as="sourcePoint" />
            <mxPoint x="980" y="260" as="targetPoint" />
            <Array as="points" />
          </mxGeometry>
        </mxCell>
        <mxCell id="L3CKvI0NyoEhmHQc9bBx-23" value="" style="ellipse;whiteSpace=wrap;html=1;aspect=fixed;fontSize=14;fillColor=#000000;" vertex="1" parent="1">
          <mxGeometry x="595" y="190" width="10" height="10" as="geometry" />
        </mxCell>
        <mxCell id="L3CKvI0NyoEhmHQc9bBx-24" value="" style="endArrow=none;html=1;fontSize=14;strokeWidth=2;" edge="1" parent="1" source="L3CKvI0NyoEhmHQc9bBx-21" target="L3CKvI0NyoEhmHQc9bBx-23">
          <mxGeometry width="50" height="50" relative="1" as="geometry">
            <mxPoint x="490.8119470157003" y="252.26866109719595" as="sourcePoint" />
            <mxPoint x="980" y="260" as="targetPoint" />
            <Array as="points" />
          </mxGeometry>
        </mxCell>
        <mxCell id="L3CKvI0NyoEhmHQc9bBx-25" value="" style="ellipse;whiteSpace=wrap;html=1;aspect=fixed;fontSize=14;fillColor=#000000;" vertex="1" parent="1">
          <mxGeometry x="720" y="260" width="10" height="10" as="geometry" />
        </mxCell>
        <mxCell id="L3CKvI0NyoEhmHQc9bBx-26" value="" style="endArrow=none;html=1;fontSize=14;strokeWidth=2;" edge="1" parent="1" source="L3CKvI0NyoEhmHQc9bBx-23" target="L3CKvI0NyoEhmHQc9bBx-25">
          <mxGeometry width="50" height="50" relative="1" as="geometry">
            <mxPoint x="605.001181055904" y="184.89133002295443" as="sourcePoint" />
            <mxPoint x="980" y="260" as="targetPoint" />
            <Array as="points" />
          </mxGeometry>
        </mxCell>
        <mxCell id="L3CKvI0NyoEhmHQc9bBx-27" value="" style="ellipse;whiteSpace=wrap;html=1;aspect=fixed;fontSize=14;fillColor=#000000;" vertex="1" parent="1">
          <mxGeometry x="840" y="180" width="10" height="10" as="geometry" />
        </mxCell>
        <mxCell id="L3CKvI0NyoEhmHQc9bBx-28" value="" style="endArrow=none;html=1;fontSize=14;strokeWidth=2;" edge="1" parent="1" source="L3CKvI0NyoEhmHQc9bBx-25" target="L3CKvI0NyoEhmHQc9bBx-27">
          <mxGeometry width="50" height="50" relative="1" as="geometry">
            <mxPoint x="730.1079833591639" y="253.96647535756983" as="sourcePoint" />
            <mxPoint x="980" y="260" as="targetPoint" />
            <Array as="points" />
          </mxGeometry>
        </mxCell>
        <mxCell id="L3CKvI0NyoEhmHQc9bBx-46" value="" style="ellipse;whiteSpace=wrap;html=1;aspect=fixed;fontSize=10;fillColor=#000000;strokeWidth=1;" vertex="1" parent="1">
          <mxGeometry x="120" y="230" width="10" height="10" as="geometry" />
        </mxCell>
        <mxCell id="L3CKvI0NyoEhmHQc9bBx-47" value="" style="ellipse;whiteSpace=wrap;html=1;aspect=fixed;fontSize=14;fillColor=#000000;" vertex="1" parent="1">
          <mxGeometry x="250" y="190" width="10" height="10" as="geometry" />
        </mxCell>
        <mxCell id="L3CKvI0NyoEhmHQc9bBx-48" value="" style="endArrow=none;html=1;fontSize=14;strokeWidth=2;" edge="1" parent="1" source="L3CKvI0NyoEhmHQc9bBx-46" target="L3CKvI0NyoEhmHQc9bBx-47">
          <mxGeometry width="50" height="50" relative="1" as="geometry">
            <mxPoint x="129.13463251034773" y="232.18844989296326" as="sourcePoint" />
            <mxPoint x="970" y="230" as="targetPoint" />
            <Array as="points" />
          </mxGeometry>
        </mxCell>
        <mxCell id="L3CKvI0NyoEhmHQc9bBx-49" value="" style="ellipse;whiteSpace=wrap;html=1;aspect=fixed;fontSize=14;fillColor=#000000;" vertex="1" parent="1">
          <mxGeometry x="360" y="150" width="10" height="10" as="geometry" />
        </mxCell>
        <mxCell id="L3CKvI0NyoEhmHQc9bBx-50" value="" style="endArrow=none;html=1;fontSize=14;strokeWidth=2;" edge="1" parent="1" source="L3CKvI0NyoEhmHQc9bBx-47" target="L3CKvI0NyoEhmHQc9bBx-49">
          <mxGeometry width="50" height="50" relative="1" as="geometry">
            <mxPoint x="259.9952807918344" y="154.78281387861603" as="sourcePoint" />
            <mxPoint x="970" y="230" as="targetPoint" />
            <Array as="points" />
          </mxGeometry>
        </mxCell>
        <mxCell id="L3CKvI0NyoEhmHQc9bBx-51" value="" style="ellipse;whiteSpace=wrap;html=1;aspect=fixed;fontSize=14;fillColor=#000000;" vertex="1" parent="1">
          <mxGeometry x="470" y="200" width="10" height="10" as="geometry" />
        </mxCell>
        <mxCell id="L3CKvI0NyoEhmHQc9bBx-52" value="" style="endArrow=none;html=1;fontSize=14;strokeWidth=2;" edge="1" parent="1" source="L3CKvI0NyoEhmHQc9bBx-49" target="L3CKvI0NyoEhmHQc9bBx-51">
          <mxGeometry width="50" height="50" relative="1" as="geometry">
            <mxPoint x="368.5355339059329" y="151.46446609406712" as="sourcePoint" />
            <mxPoint x="970" y="230" as="targetPoint" />
            <Array as="points" />
          </mxGeometry>
        </mxCell>
        <mxCell id="L3CKvI0NyoEhmHQc9bBx-53" value="" style="ellipse;whiteSpace=wrap;html=1;aspect=fixed;fontSize=14;fillColor=#000000;" vertex="1" parent="1">
          <mxGeometry x="605" y="150" width="10" height="10" as="geometry" />
        </mxCell>
        <mxCell id="L3CKvI0NyoEhmHQc9bBx-54" value="" style="endArrow=none;html=1;fontSize=14;strokeWidth=2;" edge="1" parent="1" source="L3CKvI0NyoEhmHQc9bBx-51" target="L3CKvI0NyoEhmHQc9bBx-53">
          <mxGeometry width="50" height="50" relative="1" as="geometry">
            <mxPoint x="480.8119470157003" y="222.26866109719595" as="sourcePoint" />
            <mxPoint x="970" y="230" as="targetPoint" />
            <Array as="points" />
          </mxGeometry>
        </mxCell>
        <mxCell id="L3CKvI0NyoEhmHQc9bBx-55" value="" style="ellipse;whiteSpace=wrap;html=1;aspect=fixed;fontSize=14;fillColor=#000000;" vertex="1" parent="1">
          <mxGeometry x="720" y="220" width="10" height="10" as="geometry" />
        </mxCell>
        <mxCell id="L3CKvI0NyoEhmHQc9bBx-56" value="" style="endArrow=none;html=1;fontSize=14;strokeWidth=2;" edge="1" parent="1" source="L3CKvI0NyoEhmHQc9bBx-53" target="L3CKvI0NyoEhmHQc9bBx-55">
          <mxGeometry width="50" height="50" relative="1" as="geometry">
            <mxPoint x="595.001181055904" y="154.89133002295443" as="sourcePoint" />
            <mxPoint x="970" y="230" as="targetPoint" />
            <Array as="points" />
          </mxGeometry>
        </mxCell>
        <mxCell id="L3CKvI0NyoEhmHQc9bBx-57" value="" style="ellipse;whiteSpace=wrap;html=1;aspect=fixed;fontSize=14;fillColor=#000000;" vertex="1" parent="1">
          <mxGeometry x="840" y="230" width="10" height="10" as="geometry" />
        </mxCell>
        <mxCell id="L3CKvI0NyoEhmHQc9bBx-58" value="" style="endArrow=none;html=1;fontSize=14;strokeWidth=2;" edge="1" parent="1" source="L3CKvI0NyoEhmHQc9bBx-55" target="L3CKvI0NyoEhmHQc9bBx-57">
          <mxGeometry width="50" height="50" relative="1" as="geometry">
            <mxPoint x="720.1079833591639" y="223.96647535756983" as="sourcePoint" />
            <mxPoint x="970" y="230" as="targetPoint" />
            <Array as="points" />
          </mxGeometry>
        </mxCell>
        <mxCell id="L3CKvI0NyoEhmHQc9bBx-63" value="" style="ellipse;whiteSpace=wrap;html=1;aspect=fixed;fontSize=10;fillColor=#000000;strokeWidth=1;" vertex="1" parent="1">
          <mxGeometry x="100" y="260" width="10" height="10" as="geometry" />
        </mxCell>
        <mxCell id="L3CKvI0NyoEhmHQc9bBx-64" value="" style="ellipse;whiteSpace=wrap;html=1;aspect=fixed;fontSize=14;fillColor=#000000;" vertex="1" parent="1">
          <mxGeometry x="270" y="190" width="10" height="10" as="geometry" />
        </mxCell>
        <mxCell id="L3CKvI0NyoEhmHQc9bBx-65" value="" style="endArrow=none;html=1;fontSize=14;strokeWidth=2;" edge="1" parent="1" source="L3CKvI0NyoEhmHQc9bBx-63" target="L3CKvI0NyoEhmHQc9bBx-64">
          <mxGeometry width="50" height="50" relative="1" as="geometry">
            <mxPoint x="109.13463251034773" y="262.18844989296326" as="sourcePoint" />
            <mxPoint x="950" y="260" as="targetPoint" />
            <Array as="points" />
          </mxGeometry>
        </mxCell>
        <mxCell id="L3CKvI0NyoEhmHQc9bBx-66" value="" style="ellipse;whiteSpace=wrap;html=1;aspect=fixed;fontSize=14;fillColor=#000000;" vertex="1" parent="1">
          <mxGeometry x="350" y="200" width="10" height="10" as="geometry" />
        </mxCell>
        <mxCell id="L3CKvI0NyoEhmHQc9bBx-67" value="" style="endArrow=none;html=1;fontSize=14;strokeWidth=2;" edge="1" parent="1" source="L3CKvI0NyoEhmHQc9bBx-64" target="L3CKvI0NyoEhmHQc9bBx-66">
          <mxGeometry width="50" height="50" relative="1" as="geometry">
            <mxPoint x="239.99528079183438" y="184.78281387861603" as="sourcePoint" />
            <mxPoint x="950" y="260" as="targetPoint" />
            <Array as="points" />
          </mxGeometry>
        </mxCell>
        <mxCell id="L3CKvI0NyoEhmHQc9bBx-68" value="" style="ellipse;whiteSpace=wrap;html=1;aspect=fixed;fontSize=14;fillColor=#000000;" vertex="1" parent="1">
          <mxGeometry x="480" y="270" width="10" height="10" as="geometry" />
        </mxCell>
        <mxCell id="L3CKvI0NyoEhmHQc9bBx-69" value="" style="endArrow=none;html=1;fontSize=14;strokeWidth=2;" edge="1" parent="1" source="L3CKvI0NyoEhmHQc9bBx-66" target="L3CKvI0NyoEhmHQc9bBx-68">
          <mxGeometry width="50" height="50" relative="1" as="geometry">
            <mxPoint x="348.5355339059329" y="181.46446609406712" as="sourcePoint" />
            <mxPoint x="950" y="260" as="targetPoint" />
            <Array as="points" />
          </mxGeometry>
        </mxCell>
        <mxCell id="L3CKvI0NyoEhmHQc9bBx-70" value="" style="ellipse;whiteSpace=wrap;html=1;aspect=fixed;fontSize=14;fillColor=#000000;" vertex="1" parent="1">
          <mxGeometry x="595" y="170" width="10" height="10" as="geometry" />
        </mxCell>
        <mxCell id="L3CKvI0NyoEhmHQc9bBx-71" value="" style="endArrow=none;html=1;fontSize=14;strokeWidth=2;" edge="1" parent="1" source="L3CKvI0NyoEhmHQc9bBx-68" target="L3CKvI0NyoEhmHQc9bBx-70">
          <mxGeometry width="50" height="50" relative="1" as="geometry">
            <mxPoint x="460.8119470157003" y="252.26866109719595" as="sourcePoint" />
            <mxPoint x="950" y="260" as="targetPoint" />
            <Array as="points" />
          </mxGeometry>
        </mxCell>
        <mxCell id="L3CKvI0NyoEhmHQc9bBx-72" value="" style="ellipse;whiteSpace=wrap;html=1;aspect=fixed;fontSize=14;fillColor=#000000;" vertex="1" parent="1">
          <mxGeometry x="720" y="240" width="10" height="10" as="geometry" />
        </mxCell>
        <mxCell id="L3CKvI0NyoEhmHQc9bBx-73" value="" style="endArrow=none;html=1;fontSize=14;strokeWidth=2;" edge="1" parent="1" source="L3CKvI0NyoEhmHQc9bBx-70" target="L3CKvI0NyoEhmHQc9bBx-72">
          <mxGeometry width="50" height="50" relative="1" as="geometry">
            <mxPoint x="575.001181055904" y="184.89133002295443" as="sourcePoint" />
            <mxPoint x="950" y="260" as="targetPoint" />
            <Array as="points" />
          </mxGeometry>
        </mxCell>
        <mxCell id="L3CKvI0NyoEhmHQc9bBx-74" value="" style="ellipse;whiteSpace=wrap;html=1;aspect=fixed;fontSize=14;fillColor=#000000;" vertex="1" parent="1">
          <mxGeometry x="840" y="240" width="10" height="10" as="geometry" />
        </mxCell>
        <mxCell id="L3CKvI0NyoEhmHQc9bBx-75" value="" style="endArrow=none;html=1;fontSize=14;strokeWidth=2;" edge="1" parent="1" source="L3CKvI0NyoEhmHQc9bBx-72" target="L3CKvI0NyoEhmHQc9bBx-74">
          <mxGeometry width="50" height="50" relative="1" as="geometry">
            <mxPoint x="700.1079833591639" y="253.96647535756983" as="sourcePoint" />
            <mxPoint x="950" y="260" as="targetPoint" />
            <Array as="points" />
          </mxGeometry>
        </mxCell>
      </root>
    </mxGraphModel>
  </diagram>
</mxfile>
